<svg width="20" height="20" fill="none" xmlns="http://www.w3.org/2000/svg"><path fill-rule="evenodd" clip-rule="evenodd" d="M10 0C7.28 0 6.94.01 5.88.06 2.25.23.23 2.24.06 5.88.01 6.94 0 7.28 0 10s.01 3.06.06 4.12c.17 3.63 2.18 5.65 5.82 5.82 1.06.05 1.4.06 4.12.06s3.06-.01 4.12-.06c3.63-.17 5.65-2.18 5.82-5.82.05-1.06.06-1.4.06-4.12s-.01-3.06-.06-4.12C19.78 2.25 17.76.23 14.12.06 13.06.01 12.72 0 10 0Zm0 1.8c2.67 0 2.99.01 4.04.06 2.71.12 3.98 1.41 4.1 4.1.05 1.05.06 1.37.06 4.04s-.01 2.99-.06 4.04c-.12 2.69-1.39 3.98-4.1 4.1a69.1 69.1 0 0 1-4.04.06c-2.67 0-2.99-.01-4.04-.06-2.72-.12-3.98-1.41-4.1-4.1A69.15 69.15 0 0 1 1.8 10a70 70 0 0 1 .06-4.04c.12-2.69 1.39-3.98 4.1-4.1C7 1.81 7.33 1.8 10 1.8ZM4.87 10a5.14 5.14 0 1 1 10.27 0 5.14 5.14 0 0 1-10.28 0ZM10 13.33a3.33 3.33 0 1 1 0-6.66 3.33 3.33 0 0 1 0 6.66Zm4.14-8.67a1.2 1.2 0 1 1 2.4 0 1.2 1.2 0 0 1-2.4 0Z" fill="#2C7566"/></svg>