<svg width="170" height="33" fill="none" xmlns="http://www.w3.org/2000/svg"><path fill-rule="evenodd" clip-rule="evenodd" d="M121.59 6.29a4.3 4.3 0 0 0 2.9-.9 2.86 2.86 0 0 0 1.02-2.25c0-.93-.33-1.69-.99-2.27C123.86.3 122.9 0 121.6 0c-1.3 0-2.28.29-2.94.87a2.89 2.89 0 0 0-.99 2.27c0 .91.34 1.67 1.03 2.26.68.59 1.65.89 2.9.89ZM13.65 24.24a9.85 9.85 0 0 1-5.6 1.48C3.32 25.72.64 23.8 0 19.95l5.12-1.16c.32 1.46 1.3 2.19 2.93 2.19 1.12 0 1.68-.3 1.68-.9 0-.2-.08-.36-.23-.49a3.68 3.68 0 0 0-.97-.46l-2.05-.75-.58-.2a13.04 13.04 0 0 1-2.01-.86 5.21 5.21 0 0 1-1.13-.73c-.3-.27-.6-.57-.92-.93a3.5 3.5 0 0 1-.71-1.23 5.18 5.18 0 0 1 1.84-5.79A8.18 8.18 0 0 1 8.19 7c3.5 0 5.87 1.53 7.1 4.58l-5.09 1.44c-.45-.96-1.15-1.44-2.08-1.44-.75 0-1.12.29-1.12.85 0 .21.09.38.27.52.18.13.49.27.92.4l1.98.83c3.68 1.27 5.58 3.19 5.7 5.74 0 1.89-.74 3.33-2.22 4.32Zm15.38-1.11c-1.06 1.73-2.73 2.6-4.98 2.6-4.16 0-6.24-2.61-6.24-7.83V7.38h7.03v9.84c0 2.02.7 3.04 2.11 3.04 1.4 0 2.08-1.02 2.08-3.04V7.38h7.03v17.97h-7.03v-2.22Zm17.16 2.22V15.5c0-2.03.7-3.04 2.09-3.04 1.4 0 2.11 1.01 2.11 3.04v9.84h7.03V14.83C57.42 9.6 55.34 7 51.18 7c-2.26 0-3.92.87-4.99 2.6V7.38h-7.03v17.97h7.03Zm21.16-9.84v9.84h-7.03V7.38h7.03V9.6C68.42 7.87 70.08 7 72.33 7c4.16 0 6.24 2.61 6.24 7.83v10.52h-7.03V15.5c0-2.03-.7-3.04-2.11-3.04-1.39 0-2.08 1.01-2.08 3.04ZM89.32 33l11.4-25.62h-7.34l-3.48 9.19-3.1-9.2H79.1l7.48 16.24L82.42 33h6.9Zm24.39-8.76a9.84 9.84 0 0 1-5.6 1.48c-4.73 0-7.41-1.92-8.05-5.77l5.12-1.16c.32 1.46 1.3 2.19 2.93 2.19 1.12 0 1.68-.3 1.68-.9 0-.2-.08-.36-.23-.49a3.68 3.68 0 0 0-.97-.46l-2.05-.75-.58-.2a13.12 13.12 0 0 1-2-.86 5.22 5.22 0 0 1-1.13-.73c-.3-.27-.6-.57-.93-.93a3.5 3.5 0 0 1-.71-1.23 5.18 5.18 0 0 1 1.84-5.79A8.18 8.18 0 0 1 108.25 7c3.5 0 5.87 1.53 7.1 4.58l-5.09 1.44c-.45-.96-1.15-1.44-2.08-1.44-.75 0-1.12.29-1.12.85 0 .21.09.38.27.52.18.13.49.27.92.4l1.98.83c3.69 1.27 5.58 3.19 5.7 5.74 0 1.89-.74 3.33-2.22 4.32Zm11.4-16.86v17.97h-7.04V7.38h7.03Zm10.64 18.34c2.38 0 4.09-.86 5.11-2.6v2.23h7.03V.65h-7.03v8.98C139.84 7.88 138.13 7 135.74 7a7.8 7.8 0 0 0-6.02 2.65 9.6 9.6 0 0 0-2.4 6.71c0 2.71.8 4.95 2.4 6.72a7.8 7.8 0 0 0 6.03 2.64Zm-.5-6.49c.6.75 1.4 1.13 2.4 1.13s1.8-.38 2.41-1.13c.6-.75.9-1.7.9-2.87 0-1.16-.3-2.11-.9-2.87a2.93 2.93 0 0 0-2.4-1.12c-1 0-1.81.37-2.43 1.12a4.5 4.5 0 0 0-.88 2.87c0 1.16.3 2.12.9 2.87Zm25.37 6.5c3.57 0 6.35-1.04 8.36-3.12l-2.9-3.89a7.5 7.5 0 0 1-4.85 1.74c-1.36 0-2.47-.3-3.33-.92-.85-.61-1.28-1.2-1.28-1.78h13.2c.12-.4.18-.94.18-1.6 0-2.83-.93-5.06-2.78-6.7C165.37 7.82 162.99 7 160.1 7c-3.09 0-5.53.93-7.33 2.77a9.2 9.2 0 0 0-2.7 6.66c0 2.67.95 4.88 2.85 6.65 1.9 1.76 4.47 2.64 7.7 2.64Zm-2.9-13.14a2.33 2.33 0 0 0-1.1 1.93h7.03a2.34 2.34 0 0 0-1.09-1.91 4.26 4.26 0 0 0-2.42-.69c-.93 0-1.74.22-2.42.67Z" fill="#2C7566"/></svg>